<mxfile host="app.diagrams.net" modified="2020-10-25T13:58:11.235Z" agent="5.0 (Macintosh; Intel Mac OS X 10_13_4) AppleWebKit/537.36 (KHTML, like Gecko) Chrome/86.0.4240.111 Safari/537.36" etag="iT7ykGDSQqf7nlgsT-Oe" version="13.8.2" type="github">
  <diagram name="Page-1" id="c4acf3e9-155e-7222-9cf6-157b1a14988f">
    <mxGraphModel dx="943" dy="558" grid="1" gridSize="10" guides="1" tooltips="1" connect="1" arrows="1" fold="1" page="1" pageScale="1" pageWidth="850" pageHeight="1100" background="#ffffff" math="0" shadow="0">
      <root>
        <mxCell id="0" />
        <mxCell id="1" parent="0" />
        <mxCell id="1zj-IsGmygDRIABfVBOn-1" value="管理中心" style="shape=module;align=left;spacingLeft=20;align=center;verticalAlign=top;" vertex="1" parent="1">
          <mxGeometry x="230" y="550" width="450" height="190" as="geometry" />
        </mxCell>
        <mxCell id="1zj-IsGmygDRIABfVBOn-7" value="收款机" style="shape=module;align=left;spacingLeft=20;align=center;verticalAlign=top;" vertex="1" parent="1">
          <mxGeometry x="230" y="790" width="450" height="170" as="geometry" />
        </mxCell>
        <mxCell id="1zj-IsGmygDRIABfVBOn-8" value="用户管理" style="shape=module;align=left;spacingLeft=20;align=center;verticalAlign=top;" vertex="1" parent="1">
          <mxGeometry x="270" y="590" width="100" height="50" as="geometry" />
        </mxCell>
        <mxCell id="1zj-IsGmygDRIABfVBOn-9" value="卡管理" style="shape=module;align=left;spacingLeft=20;align=center;verticalAlign=top;" vertex="1" parent="1">
          <mxGeometry x="405" y="670" width="100" height="50" as="geometry" />
        </mxCell>
        <mxCell id="1zj-IsGmygDRIABfVBOn-10" value="消费管理" style="shape=module;align=left;spacingLeft=20;align=center;verticalAlign=top;" vertex="1" parent="1">
          <mxGeometry x="530" y="590" width="100" height="50" as="geometry" />
        </mxCell>
        <mxCell id="1zj-IsGmygDRIABfVBOn-11" value="读卡器" style="shape=module;align=left;spacingLeft=20;align=center;verticalAlign=top;" vertex="1" parent="1">
          <mxGeometry x="305" y="840" width="100" height="50" as="geometry" />
        </mxCell>
        <mxCell id="1zj-IsGmygDRIABfVBOn-12" value="收银" style="shape=module;align=left;spacingLeft=20;align=center;verticalAlign=top;" vertex="1" parent="1">
          <mxGeometry x="520" y="850" width="100" height="50" as="geometry" />
        </mxCell>
        <mxCell id="1zj-IsGmygDRIABfVBOn-13" value="" style="endArrow=open;endFill=1;endSize=12;html=1;exitX=0.5;exitY=0;exitDx=0;exitDy=0;entryX=0.549;entryY=1;entryDx=0;entryDy=0;entryPerimeter=0;" edge="1" parent="1" source="1zj-IsGmygDRIABfVBOn-7" target="1zj-IsGmygDRIABfVBOn-1">
          <mxGeometry width="160" relative="1" as="geometry">
            <mxPoint x="340" y="730" as="sourcePoint" />
            <mxPoint x="500" y="730" as="targetPoint" />
          </mxGeometry>
        </mxCell>
        <mxCell id="1zj-IsGmygDRIABfVBOn-14" value="" style="endArrow=open;endFill=1;endSize=12;html=1;" edge="1" parent="1">
          <mxGeometry width="160" relative="1" as="geometry">
            <mxPoint x="370" y="614.5" as="sourcePoint" />
            <mxPoint x="530" y="614.5" as="targetPoint" />
          </mxGeometry>
        </mxCell>
        <mxCell id="1zj-IsGmygDRIABfVBOn-15" value="" style="endArrow=open;endFill=1;endSize=12;html=1;entryX=0;entryY=0;entryDx=10;entryDy=0;entryPerimeter=0;" edge="1" parent="1" target="1zj-IsGmygDRIABfVBOn-9">
          <mxGeometry width="160" relative="1" as="geometry">
            <mxPoint x="340" y="639" as="sourcePoint" />
            <mxPoint x="500" y="639" as="targetPoint" />
          </mxGeometry>
        </mxCell>
        <mxCell id="1zj-IsGmygDRIABfVBOn-17" value="" style="endArrow=open;endFill=1;endSize=12;html=1;entryX=1;entryY=0.5;entryDx=0;entryDy=0;exitX=0;exitY=0;exitDx=0;exitDy=15;exitPerimeter=0;" edge="1" parent="1" source="1zj-IsGmygDRIABfVBOn-12" target="1zj-IsGmygDRIABfVBOn-11">
          <mxGeometry width="160" relative="1" as="geometry">
            <mxPoint x="560" y="829" as="sourcePoint" />
            <mxPoint x="720" y="829" as="targetPoint" />
          </mxGeometry>
        </mxCell>
      </root>
    </mxGraphModel>
  </diagram>
</mxfile>
